<mxfile host="65bd71144e">
    <diagram id="VylMC64bwgkqFn8bdty4" name="Page-1">
        <mxGraphModel dx="558" dy="686" grid="1" gridSize="10" guides="1" tooltips="1" connect="1" arrows="1" fold="1" page="1" pageScale="1" pageWidth="850" pageHeight="1100" math="0" shadow="0">
            <root>
                <mxCell id="0"/>
                <mxCell id="1" parent="0"/>
                <mxCell id="2" value="" style="rounded=0;whiteSpace=wrap;html=1;fillColor=#f0a30a;fontColor=#000000;strokeColor=none;" vertex="1" parent="1">
                    <mxGeometry x="140" y="210" width="30" height="110" as="geometry"/>
                </mxCell>
                <mxCell id="44" value="" style="rounded=0;whiteSpace=wrap;html=1;fillColor=#6a00ff;fontColor=#ffffff;strokeColor=none;" vertex="1" parent="1">
                    <mxGeometry x="170" y="210" width="60" height="110" as="geometry"/>
                </mxCell>
                <mxCell id="45" value="" style="rounded=0;whiteSpace=wrap;html=1;fillColor=#d80073;fontColor=#ffffff;strokeColor=none;" vertex="1" parent="1">
                    <mxGeometry x="230" y="210" width="60" height="110" as="geometry"/>
                </mxCell>
                <mxCell id="46" value="" style="rounded=0;whiteSpace=wrap;html=1;fillColor=#6a00ff;fontColor=#ffffff;strokeColor=none;gradientColor=#FFFFFF;" vertex="1" parent="1">
                    <mxGeometry x="170" y="320" width="60" height="10" as="geometry"/>
                </mxCell>
                <mxCell id="47" value="" style="rounded=0;whiteSpace=wrap;html=1;fillColor=#d80073;fontColor=#ffffff;strokeColor=none;gradientColor=#FFFFFF;" vertex="1" parent="1">
                    <mxGeometry x="230" y="320" width="60" height="10" as="geometry"/>
                </mxCell>
                <mxCell id="51" value="" style="rounded=0;whiteSpace=wrap;html=1;fillColor=#f0a30a;fontColor=#000000;strokeColor=none;gradientColor=#FFFFFF;" vertex="1" parent="1">
                    <mxGeometry x="140" y="320" width="30" height="10" as="geometry"/>
                </mxCell>
                <mxCell id="11" value="" style="rounded=0;whiteSpace=wrap;html=1;fillColor=#00CC00;fontColor=#ffffff;strokeColor=none;" vertex="1" parent="1">
                    <mxGeometry x="630" y="210" width="70" height="130" as="geometry"/>
                </mxCell>
                <mxCell id="12" value="" style="rounded=0;whiteSpace=wrap;html=1;fillColor=#6a00ff;fontColor=#ffffff;strokeColor=none;gradientColor=#C516D8;" vertex="1" parent="1">
                    <mxGeometry x="480" y="210" width="70" height="60" as="geometry"/>
                </mxCell>
                <mxCell id="15" value="Primary" style="text;html=1;strokeColor=none;fillColor=none;align=center;verticalAlign=middle;whiteSpace=wrap;rounded=0;fontStyle=1" vertex="1" parent="1">
                    <mxGeometry x="140" y="160" width="150" height="30" as="geometry"/>
                </mxCell>
                <mxCell id="16" value="Associated" style="text;html=1;strokeColor=none;fillColor=none;align=center;verticalAlign=middle;whiteSpace=wrap;rounded=0;fontStyle=1" vertex="1" parent="1">
                    <mxGeometry x="320" y="160" width="120" height="30" as="geometry"/>
                </mxCell>
                <mxCell id="17" value="Key" style="text;html=1;strokeColor=none;fillColor=none;align=center;verticalAlign=middle;whiteSpace=wrap;rounded=0;" vertex="1" parent="1">
                    <mxGeometry x="140" y="190" width="30" height="20" as="geometry"/>
                </mxCell>
                <mxCell id="18" value="Unchecked access using indices" style="text;html=1;strokeColor=none;fillColor=none;align=center;verticalAlign=middle;whiteSpace=wrap;rounded=0;fontSize=10;fontStyle=2" vertex="1" parent="1">
                    <mxGeometry x="340" y="350" width="130" height="30" as="geometry"/>
                </mxCell>
                <mxCell id="19" value="Unique Indices" style="text;html=1;strokeColor=none;fillColor=none;align=center;verticalAlign=middle;whiteSpace=wrap;rounded=0;fontStyle=1" vertex="1" parent="1">
                    <mxGeometry x="480" y="160" width="100" height="30" as="geometry"/>
                </mxCell>
                <mxCell id="20" value="" style="rounded=0;whiteSpace=wrap;html=1;fillColor=#f0a30a;fontColor=#000000;strokeColor=none;" vertex="1" parent="1">
                    <mxGeometry x="550" y="210" width="30" height="60" as="geometry"/>
                </mxCell>
                <mxCell id="34" value="" style="rounded=0;whiteSpace=wrap;html=1;fillColor=#FFFFFF;fontColor=#ffffff;strokeColor=none;gradientColor=#C516D8;gradientDirection=north;" vertex="1" parent="1">
                    <mxGeometry x="480" y="270" width="70" height="10" as="geometry"/>
                </mxCell>
                <mxCell id="35" value="" style="rounded=0;whiteSpace=wrap;html=1;fillColor=#f0a30a;fontColor=#000000;strokeColor=none;gradientColor=default;" vertex="1" parent="1">
                    <mxGeometry x="550" y="270" width="30" height="10" as="geometry"/>
                </mxCell>
                <mxCell id="36" value="" style="endArrow=none;html=1;entryX=1;entryY=0;entryDx=0;entryDy=0;exitX=0;exitY=0;exitDx=0;exitDy=0;strokeColor=#000000;" edge="1" parent="1" source="12" target="20">
                    <mxGeometry width="50" height="50" relative="1" as="geometry">
                        <mxPoint x="460" y="100" as="sourcePoint"/>
                        <mxPoint x="510" y="50" as="targetPoint"/>
                    </mxGeometry>
                </mxCell>
                <mxCell id="37" value="" style="endArrow=none;html=1;entryX=0;entryY=1;entryDx=0;entryDy=0;exitX=0;exitY=0;exitDx=0;exitDy=0;strokeColor=#000000;" edge="1" parent="1" source="12" target="34">
                    <mxGeometry width="50" height="50" relative="1" as="geometry">
                        <mxPoint x="490" y="220" as="sourcePoint"/>
                        <mxPoint x="600" y="220" as="targetPoint"/>
                    </mxGeometry>
                </mxCell>
                <mxCell id="38" value="" style="endArrow=none;html=1;entryX=1;entryY=1;entryDx=0;entryDy=0;exitX=1;exitY=0;exitDx=0;exitDy=0;strokeColor=#000000;" edge="1" parent="1" source="20" target="35">
                    <mxGeometry width="50" height="50" relative="1" as="geometry">
                        <mxPoint x="490" y="220" as="sourcePoint"/>
                        <mxPoint x="490" y="290" as="targetPoint"/>
                    </mxGeometry>
                </mxCell>
                <mxCell id="48" value="" style="endArrow=none;html=1;strokeColor=#000000;exitX=0;exitY=0;exitDx=0;exitDy=0;entryX=1;entryY=0;entryDx=0;entryDy=0;" edge="1" parent="1" source="2" target="45">
                    <mxGeometry width="50" height="50" relative="1" as="geometry">
                        <mxPoint x="240" y="130" as="sourcePoint"/>
                        <mxPoint x="290" y="80" as="targetPoint"/>
                    </mxGeometry>
                </mxCell>
                <mxCell id="49" value="" style="endArrow=none;html=1;strokeColor=#000000;exitX=1;exitY=1;exitDx=0;exitDy=0;entryX=1;entryY=0;entryDx=0;entryDy=0;" edge="1" parent="1" source="47" target="45">
                    <mxGeometry width="50" height="50" relative="1" as="geometry">
                        <mxPoint x="180" y="220" as="sourcePoint"/>
                        <mxPoint x="300" y="220" as="targetPoint"/>
                    </mxGeometry>
                </mxCell>
                <mxCell id="50" value="" style="endArrow=none;html=1;strokeColor=#000000;entryX=0;entryY=0;entryDx=0;entryDy=0;exitX=0;exitY=1;exitDx=0;exitDy=0;" edge="1" parent="1" source="51" target="2">
                    <mxGeometry width="50" height="50" relative="1" as="geometry">
                        <mxPoint x="80" y="330" as="sourcePoint"/>
                        <mxPoint x="120" y="240" as="targetPoint"/>
                    </mxGeometry>
                </mxCell>
                <mxCell id="52" value="" style="group" vertex="1" connectable="0" parent="1">
                    <mxGeometry x="320" y="210" width="120" height="120" as="geometry"/>
                </mxCell>
                <mxCell id="5" value="" style="rounded=0;whiteSpace=wrap;html=1;fillColor=#6a00ff;fontColor=#ffffff;strokeColor=none;" vertex="1" parent="52">
                    <mxGeometry width="60" height="110" as="geometry"/>
                </mxCell>
                <mxCell id="6" value="" style="rounded=0;whiteSpace=wrap;html=1;fillColor=#d80073;fontColor=#ffffff;strokeColor=none;" vertex="1" parent="52">
                    <mxGeometry x="60" width="60" height="110" as="geometry"/>
                </mxCell>
                <mxCell id="39" value="" style="rounded=0;whiteSpace=wrap;html=1;fillColor=#6a00ff;fontColor=#ffffff;strokeColor=none;gradientColor=#FFFFFF;" vertex="1" parent="52">
                    <mxGeometry y="110" width="60" height="10" as="geometry"/>
                </mxCell>
                <mxCell id="40" value="" style="rounded=0;whiteSpace=wrap;html=1;fillColor=#d80073;fontColor=#ffffff;strokeColor=none;gradientColor=default;" vertex="1" parent="52">
                    <mxGeometry x="60" y="110" width="60" height="10" as="geometry"/>
                </mxCell>
                <mxCell id="41" value="" style="endArrow=none;html=1;strokeColor=#000000;exitX=0;exitY=0;exitDx=0;exitDy=0;entryX=1;entryY=0;entryDx=0;entryDy=0;" edge="1" parent="52" source="5" target="6">
                    <mxGeometry width="50" height="50" relative="1" as="geometry">
                        <mxPoint x="70" y="-80" as="sourcePoint"/>
                        <mxPoint x="120" y="-130" as="targetPoint"/>
                    </mxGeometry>
                </mxCell>
                <mxCell id="42" value="" style="endArrow=none;html=1;strokeColor=#000000;exitX=1;exitY=1;exitDx=0;exitDy=0;entryX=1;entryY=0;entryDx=0;entryDy=0;" edge="1" parent="52" source="40" target="6">
                    <mxGeometry width="50" height="50" relative="1" as="geometry">
                        <mxPoint x="10" y="10" as="sourcePoint"/>
                        <mxPoint x="130" y="10" as="targetPoint"/>
                    </mxGeometry>
                </mxCell>
                <mxCell id="43" value="" style="endArrow=none;html=1;strokeColor=#000000;exitX=0;exitY=1;exitDx=0;exitDy=0;entryX=0;entryY=0;entryDx=0;entryDy=0;" edge="1" parent="52" source="39" target="5">
                    <mxGeometry width="50" height="50" relative="1" as="geometry">
                        <mxPoint x="130" y="130" as="sourcePoint"/>
                        <mxPoint x="130" y="10" as="targetPoint"/>
                    </mxGeometry>
                </mxCell>
                <mxCell id="53" value="" style="group" vertex="1" connectable="0" parent="1">
                    <mxGeometry x="330" y="220" width="130" height="130" as="geometry"/>
                </mxCell>
                <mxCell id="54" value="" style="rounded=0;whiteSpace=wrap;html=1;fillColor=#6a00ff;fontColor=#ffffff;strokeColor=none;" vertex="1" parent="53">
                    <mxGeometry width="60" height="110" as="geometry"/>
                </mxCell>
                <mxCell id="55" value="" style="rounded=0;whiteSpace=wrap;html=1;fillColor=#d80073;fontColor=#ffffff;strokeColor=none;" vertex="1" parent="53">
                    <mxGeometry x="60" width="60" height="110" as="geometry"/>
                </mxCell>
                <mxCell id="56" value="" style="rounded=0;whiteSpace=wrap;html=1;fillColor=#6a00ff;fontColor=#ffffff;strokeColor=none;gradientColor=#FFFFFF;" vertex="1" parent="53">
                    <mxGeometry y="110" width="60" height="10" as="geometry"/>
                </mxCell>
                <mxCell id="57" value="" style="rounded=0;whiteSpace=wrap;html=1;fillColor=#d80073;fontColor=#ffffff;strokeColor=none;gradientColor=default;" vertex="1" parent="53">
                    <mxGeometry x="60" y="110" width="60" height="10" as="geometry"/>
                </mxCell>
                <mxCell id="58" value="" style="endArrow=none;html=1;strokeColor=#000000;exitX=0;exitY=0;exitDx=0;exitDy=0;entryX=1;entryY=0;entryDx=0;entryDy=0;" edge="1" parent="53" source="54" target="55">
                    <mxGeometry width="50" height="50" relative="1" as="geometry">
                        <mxPoint x="70" y="-80" as="sourcePoint"/>
                        <mxPoint x="120" y="-130" as="targetPoint"/>
                    </mxGeometry>
                </mxCell>
                <mxCell id="59" value="" style="endArrow=none;html=1;strokeColor=#000000;exitX=1;exitY=1;exitDx=0;exitDy=0;entryX=1;entryY=0;entryDx=0;entryDy=0;" edge="1" parent="53" source="57" target="55">
                    <mxGeometry width="50" height="50" relative="1" as="geometry">
                        <mxPoint x="10" y="10" as="sourcePoint"/>
                        <mxPoint x="130" y="10" as="targetPoint"/>
                    </mxGeometry>
                </mxCell>
                <mxCell id="60" value="" style="endArrow=none;html=1;strokeColor=#000000;exitX=0;exitY=1;exitDx=0;exitDy=0;entryX=0;entryY=0;entryDx=0;entryDy=0;" edge="1" parent="53" source="56" target="54">
                    <mxGeometry width="50" height="50" relative="1" as="geometry">
                        <mxPoint x="130" y="130" as="sourcePoint"/>
                        <mxPoint x="130" y="10" as="targetPoint"/>
                    </mxGeometry>
                </mxCell>
                <mxCell id="61" value="" style="group" vertex="1" connectable="0" parent="53">
                    <mxGeometry x="10" y="10" width="120" height="120" as="geometry"/>
                </mxCell>
                <mxCell id="62" value="" style="rounded=0;whiteSpace=wrap;html=1;fillColor=#6a00ff;fontColor=#ffffff;strokeColor=none;" vertex="1" parent="61">
                    <mxGeometry width="60" height="110" as="geometry"/>
                </mxCell>
                <mxCell id="63" value="" style="rounded=0;whiteSpace=wrap;html=1;fillColor=#d80073;fontColor=#ffffff;strokeColor=none;" vertex="1" parent="61">
                    <mxGeometry x="60" width="60" height="110" as="geometry"/>
                </mxCell>
                <mxCell id="64" value="" style="rounded=0;whiteSpace=wrap;html=1;fillColor=#6a00ff;fontColor=#ffffff;strokeColor=none;gradientColor=#FFFFFF;" vertex="1" parent="61">
                    <mxGeometry y="110" width="60" height="10" as="geometry"/>
                </mxCell>
                <mxCell id="65" value="" style="rounded=0;whiteSpace=wrap;html=1;fillColor=#d80073;fontColor=#ffffff;strokeColor=none;gradientColor=#FFFFFF;" vertex="1" parent="61">
                    <mxGeometry x="60" y="110" width="60" height="10" as="geometry"/>
                </mxCell>
                <mxCell id="66" value="" style="endArrow=none;html=1;strokeColor=#000000;exitX=0;exitY=0;exitDx=0;exitDy=0;entryX=1;entryY=0;entryDx=0;entryDy=0;" edge="1" parent="61" source="62" target="63">
                    <mxGeometry width="50" height="50" relative="1" as="geometry">
                        <mxPoint x="70" y="-80" as="sourcePoint"/>
                        <mxPoint x="120" y="-130" as="targetPoint"/>
                    </mxGeometry>
                </mxCell>
                <mxCell id="67" value="" style="endArrow=none;html=1;strokeColor=#000000;exitX=1;exitY=1;exitDx=0;exitDy=0;entryX=1;entryY=0;entryDx=0;entryDy=0;" edge="1" parent="61" source="65" target="63">
                    <mxGeometry width="50" height="50" relative="1" as="geometry">
                        <mxPoint x="10" y="10" as="sourcePoint"/>
                        <mxPoint x="130" y="10" as="targetPoint"/>
                    </mxGeometry>
                </mxCell>
                <mxCell id="68" value="" style="endArrow=none;html=1;strokeColor=#000000;exitX=0;exitY=1;exitDx=0;exitDy=0;entryX=0;entryY=0;entryDx=0;entryDy=0;" edge="1" parent="61" source="64" target="62">
                    <mxGeometry width="50" height="50" relative="1" as="geometry">
                        <mxPoint x="130" y="130" as="sourcePoint"/>
                        <mxPoint x="130" y="10" as="targetPoint"/>
                    </mxGeometry>
                </mxCell>
                <mxCell id="141" value="" style="group" vertex="1" connectable="0" parent="61">
                    <mxGeometry width="120" height="100.24" as="geometry"/>
                </mxCell>
                <mxCell id="129" value="" style="endArrow=none;html=1;strokeColor=#000000;exitX=0;exitY=0;exitDx=0;exitDy=0;entryX=1;entryY=0;entryDx=0;entryDy=0;" edge="1" parent="141">
                    <mxGeometry width="50" height="50" relative="1" as="geometry">
                        <mxPoint as="sourcePoint"/>
                        <mxPoint x="120" as="targetPoint"/>
                    </mxGeometry>
                </mxCell>
                <mxCell id="130" value="" style="endArrow=none;html=1;strokeColor=#000000;" edge="1" parent="141">
                    <mxGeometry width="50" height="50" relative="1" as="geometry">
                        <mxPoint y="39.99999999999999" as="sourcePoint"/>
                        <mxPoint x="120" y="39.759999999999984" as="targetPoint"/>
                    </mxGeometry>
                </mxCell>
                <mxCell id="131" value="" style="endArrow=none;html=1;strokeColor=#000000;" edge="1" parent="141">
                    <mxGeometry width="50" height="50" relative="1" as="geometry">
                        <mxPoint y="50.24" as="sourcePoint"/>
                        <mxPoint x="120" y="49.99999999999999" as="targetPoint"/>
                    </mxGeometry>
                </mxCell>
                <mxCell id="132" value="" style="endArrow=none;html=1;strokeColor=#000000;" edge="1" parent="141">
                    <mxGeometry width="50" height="50" relative="1" as="geometry">
                        <mxPoint y="60.24" as="sourcePoint"/>
                        <mxPoint x="120" y="59.99999999999999" as="targetPoint"/>
                    </mxGeometry>
                </mxCell>
                <mxCell id="133" value="" style="endArrow=none;html=1;strokeColor=#000000;" edge="1" parent="141">
                    <mxGeometry width="50" height="50" relative="1" as="geometry">
                        <mxPoint y="70.24" as="sourcePoint"/>
                        <mxPoint x="120" y="69.99999999999999" as="targetPoint"/>
                    </mxGeometry>
                </mxCell>
                <mxCell id="134" value="" style="endArrow=none;html=1;strokeColor=#000000;" edge="1" parent="141">
                    <mxGeometry width="50" height="50" relative="1" as="geometry">
                        <mxPoint y="80.24" as="sourcePoint"/>
                        <mxPoint x="120" y="79.99999999999999" as="targetPoint"/>
                    </mxGeometry>
                </mxCell>
                <mxCell id="135" value="" style="endArrow=none;html=1;strokeColor=#000000;" edge="1" parent="141">
                    <mxGeometry width="50" height="50" relative="1" as="geometry">
                        <mxPoint y="90.24" as="sourcePoint"/>
                        <mxPoint x="120" y="89.99999999999999" as="targetPoint"/>
                    </mxGeometry>
                </mxCell>
                <mxCell id="136" value="" style="endArrow=none;html=1;strokeColor=#000000;" edge="1" parent="141">
                    <mxGeometry width="50" height="50" relative="1" as="geometry">
                        <mxPoint y="100.24" as="sourcePoint"/>
                        <mxPoint x="120" y="99.99999999999999" as="targetPoint"/>
                    </mxGeometry>
                </mxCell>
                <mxCell id="137" value="" style="endArrow=none;html=1;strokeColor=#000000;" edge="1" parent="141">
                    <mxGeometry width="50" height="50" relative="1" as="geometry">
                        <mxPoint y="0.24000000000000907" as="sourcePoint"/>
                        <mxPoint x="120" as="targetPoint"/>
                    </mxGeometry>
                </mxCell>
                <mxCell id="138" value="" style="endArrow=none;html=1;strokeColor=#000000;" edge="1" parent="141">
                    <mxGeometry width="50" height="50" relative="1" as="geometry">
                        <mxPoint y="10.480000000000016" as="sourcePoint"/>
                        <mxPoint x="120" y="10.240000000000007" as="targetPoint"/>
                    </mxGeometry>
                </mxCell>
                <mxCell id="139" value="" style="endArrow=none;html=1;strokeColor=#000000;" edge="1" parent="141">
                    <mxGeometry width="50" height="50" relative="1" as="geometry">
                        <mxPoint y="20.480000000000015" as="sourcePoint"/>
                        <mxPoint x="120" y="20.240000000000006" as="targetPoint"/>
                    </mxGeometry>
                </mxCell>
                <mxCell id="140" value="" style="endArrow=none;html=1;strokeColor=#000000;" edge="1" parent="141">
                    <mxGeometry width="50" height="50" relative="1" as="geometry">
                        <mxPoint y="30.480000000000015" as="sourcePoint"/>
                        <mxPoint x="120" y="30.240000000000006" as="targetPoint"/>
                    </mxGeometry>
                </mxCell>
                <mxCell id="93" value="" style="rounded=0;whiteSpace=wrap;html=1;fillColor=#6a00ff;fontColor=#ffffff;strokeColor=none;gradientColor=#C516D8;" vertex="1" parent="1">
                    <mxGeometry x="490" y="220" width="70" height="60" as="geometry"/>
                </mxCell>
                <mxCell id="94" value="" style="rounded=0;whiteSpace=wrap;html=1;fillColor=#f0a30a;fontColor=#000000;strokeColor=none;" vertex="1" parent="1">
                    <mxGeometry x="560" y="220" width="30" height="60" as="geometry"/>
                </mxCell>
                <mxCell id="95" value="" style="rounded=0;whiteSpace=wrap;html=1;fillColor=#FFFFFF;fontColor=#ffffff;strokeColor=none;gradientColor=#C516D8;gradientDirection=north;" vertex="1" parent="1">
                    <mxGeometry x="490" y="280" width="70" height="10" as="geometry"/>
                </mxCell>
                <mxCell id="96" value="" style="rounded=0;whiteSpace=wrap;html=1;fillColor=#f0a30a;fontColor=#000000;strokeColor=none;gradientColor=default;" vertex="1" parent="1">
                    <mxGeometry x="560" y="280" width="30" height="10" as="geometry"/>
                </mxCell>
                <mxCell id="97" value="" style="endArrow=none;html=1;entryX=1;entryY=0;entryDx=0;entryDy=0;exitX=0;exitY=0;exitDx=0;exitDy=0;strokeColor=#000000;" edge="1" parent="1" source="93" target="94">
                    <mxGeometry width="50" height="50" relative="1" as="geometry">
                        <mxPoint x="470" y="110" as="sourcePoint"/>
                        <mxPoint x="520" y="60" as="targetPoint"/>
                    </mxGeometry>
                </mxCell>
                <mxCell id="98" value="" style="endArrow=none;html=1;entryX=0;entryY=1;entryDx=0;entryDy=0;exitX=0;exitY=0;exitDx=0;exitDy=0;strokeColor=#000000;" edge="1" parent="1" source="93" target="95">
                    <mxGeometry width="50" height="50" relative="1" as="geometry">
                        <mxPoint x="500" y="230" as="sourcePoint"/>
                        <mxPoint x="610" y="230" as="targetPoint"/>
                    </mxGeometry>
                </mxCell>
                <mxCell id="99" value="" style="endArrow=none;html=1;entryX=1;entryY=1;entryDx=0;entryDy=0;exitX=1;exitY=0;exitDx=0;exitDy=0;strokeColor=#000000;" edge="1" parent="1" source="94" target="96">
                    <mxGeometry width="50" height="50" relative="1" as="geometry">
                        <mxPoint x="500" y="230" as="sourcePoint"/>
                        <mxPoint x="500" y="300" as="targetPoint"/>
                    </mxGeometry>
                </mxCell>
                <mxCell id="100" value="" style="rounded=0;whiteSpace=wrap;html=1;fillColor=#6a00ff;fontColor=#ffffff;strokeColor=none;gradientColor=#C516D8;" vertex="1" parent="1">
                    <mxGeometry x="500" y="230" width="70" height="60" as="geometry"/>
                </mxCell>
                <mxCell id="101" value="" style="rounded=0;whiteSpace=wrap;html=1;fillColor=#f0a30a;fontColor=#000000;strokeColor=none;" vertex="1" parent="1">
                    <mxGeometry x="570" y="230" width="30" height="60" as="geometry"/>
                </mxCell>
                <mxCell id="102" value="" style="rounded=0;whiteSpace=wrap;html=1;fillColor=#FFFFFF;fontColor=#ffffff;strokeColor=none;gradientColor=#C516D8;gradientDirection=north;" vertex="1" parent="1">
                    <mxGeometry x="500" y="290" width="70" height="10" as="geometry"/>
                </mxCell>
                <mxCell id="103" value="" style="rounded=0;whiteSpace=wrap;html=1;fillColor=#f0a30a;fontColor=#000000;strokeColor=none;gradientColor=#FFFFFF;" vertex="1" parent="1">
                    <mxGeometry x="570" y="290" width="30" height="10" as="geometry"/>
                </mxCell>
                <mxCell id="104" value="" style="endArrow=none;html=1;entryX=1;entryY=0;entryDx=0;entryDy=0;exitX=0;exitY=0;exitDx=0;exitDy=0;strokeColor=#000000;" edge="1" parent="1" source="100" target="101">
                    <mxGeometry width="50" height="50" relative="1" as="geometry">
                        <mxPoint x="480" y="120" as="sourcePoint"/>
                        <mxPoint x="530" y="70" as="targetPoint"/>
                    </mxGeometry>
                </mxCell>
                <mxCell id="105" value="" style="endArrow=none;html=1;entryX=0;entryY=1;entryDx=0;entryDy=0;exitX=0;exitY=0;exitDx=0;exitDy=0;strokeColor=#000000;" edge="1" parent="1" source="100" target="102">
                    <mxGeometry width="50" height="50" relative="1" as="geometry">
                        <mxPoint x="510" y="240" as="sourcePoint"/>
                        <mxPoint x="620" y="240" as="targetPoint"/>
                    </mxGeometry>
                </mxCell>
                <mxCell id="106" value="" style="endArrow=none;html=1;entryX=1;entryY=1;entryDx=0;entryDy=0;exitX=1;exitY=0;exitDx=0;exitDy=0;strokeColor=#000000;" edge="1" parent="1" source="101" target="103">
                    <mxGeometry width="50" height="50" relative="1" as="geometry">
                        <mxPoint x="510" y="240" as="sourcePoint"/>
                        <mxPoint x="510" y="310" as="targetPoint"/>
                    </mxGeometry>
                </mxCell>
                <mxCell id="107" value="" style="rounded=0;whiteSpace=wrap;html=1;fillColor=#00CC00;fontColor=#ffffff;strokeColor=none;gradientColor=#FFFFFF;" vertex="1" parent="1">
                    <mxGeometry x="630" y="340" width="70" height="10" as="geometry"/>
                </mxCell>
                <mxCell id="108" value="Row Predicates" style="rounded=0;whiteSpace=wrap;html=1;gradientDirection=north;strokeColor=#000000;" vertex="1" parent="1">
                    <mxGeometry x="480" y="315" width="120" height="35" as="geometry"/>
                </mxCell>
                <mxCell id="112" value="" style="endArrow=none;html=1;strokeColor=#000000;entryX=1;entryY=0;entryDx=0;entryDy=0;exitX=0;exitY=0;exitDx=0;exitDy=0;" edge="1" parent="1" source="11" target="11">
                    <mxGeometry width="50" height="50" relative="1" as="geometry">
                        <mxPoint x="610" y="140" as="sourcePoint"/>
                        <mxPoint x="610" y="150" as="targetPoint"/>
                    </mxGeometry>
                </mxCell>
                <mxCell id="113" value="" style="endArrow=none;html=1;strokeColor=#000000;entryX=0;entryY=1;entryDx=0;entryDy=0;exitX=0;exitY=0;exitDx=0;exitDy=0;" edge="1" parent="1" source="11" target="107">
                    <mxGeometry width="50" height="50" relative="1" as="geometry">
                        <mxPoint x="640" y="220" as="sourcePoint"/>
                        <mxPoint x="710" y="220" as="targetPoint"/>
                    </mxGeometry>
                </mxCell>
                <mxCell id="114" value="" style="endArrow=none;html=1;strokeColor=#000000;entryX=1;entryY=1;entryDx=0;entryDy=0;exitX=1;exitY=0;exitDx=0;exitDy=0;" edge="1" parent="1" source="11" target="107">
                    <mxGeometry width="50" height="50" relative="1" as="geometry">
                        <mxPoint x="640" y="220" as="sourcePoint"/>
                        <mxPoint x="640" y="360" as="targetPoint"/>
                    </mxGeometry>
                </mxCell>
                <mxCell id="109" value="Insert" style="rounded=0;whiteSpace=wrap;html=1;gradientDirection=north;fillColor=#008a00;fontColor=#ffffff;strokeColor=#000000;" vertex="1" parent="1">
                    <mxGeometry x="640" y="220" width="70" height="20" as="geometry"/>
                </mxCell>
                <mxCell id="110" value="Update" style="rounded=0;whiteSpace=wrap;html=1;gradientDirection=north;fillColor=#008a00;fontColor=#ffffff;strokeColor=#000000;" vertex="1" parent="1">
                    <mxGeometry x="640" y="240" width="70" height="20" as="geometry"/>
                </mxCell>
                <mxCell id="111" value="Delete" style="rounded=0;whiteSpace=wrap;html=1;gradientDirection=north;fillColor=#008a00;fontColor=#ffffff;strokeColor=#000000;" vertex="1" parent="1">
                    <mxGeometry x="640" y="260" width="70" height="20" as="geometry"/>
                </mxCell>
                <mxCell id="116" value="mutable" style="text;html=1;strokeColor=none;fillColor=none;align=center;verticalAlign=middle;whiteSpace=wrap;rounded=0;" vertex="1" parent="1">
                    <mxGeometry x="170" y="190" width="60" height="20" as="geometry"/>
                </mxCell>
                <mxCell id="118" value="" style="endArrow=none;html=1;strokeColor=#000000;" edge="1" parent="1">
                    <mxGeometry width="50" height="50" relative="1" as="geometry">
                        <mxPoint x="140" y="250" as="sourcePoint"/>
                        <mxPoint x="290" y="249.76" as="targetPoint"/>
                    </mxGeometry>
                </mxCell>
                <mxCell id="119" value="" style="endArrow=none;html=1;strokeColor=#000000;" edge="1" parent="1">
                    <mxGeometry width="50" height="50" relative="1" as="geometry">
                        <mxPoint x="140" y="260.24" as="sourcePoint"/>
                        <mxPoint x="290" y="260" as="targetPoint"/>
                    </mxGeometry>
                </mxCell>
                <mxCell id="120" value="" style="endArrow=none;html=1;strokeColor=#000000;" edge="1" parent="1">
                    <mxGeometry width="50" height="50" relative="1" as="geometry">
                        <mxPoint x="140" y="270.24" as="sourcePoint"/>
                        <mxPoint x="290" y="270" as="targetPoint"/>
                    </mxGeometry>
                </mxCell>
                <mxCell id="121" value="" style="endArrow=none;html=1;strokeColor=#000000;" edge="1" parent="1">
                    <mxGeometry width="50" height="50" relative="1" as="geometry">
                        <mxPoint x="140" y="280.24" as="sourcePoint"/>
                        <mxPoint x="290" y="280" as="targetPoint"/>
                    </mxGeometry>
                </mxCell>
                <mxCell id="122" value="" style="endArrow=none;html=1;strokeColor=#000000;" edge="1" parent="1">
                    <mxGeometry width="50" height="50" relative="1" as="geometry">
                        <mxPoint x="140" y="290.24" as="sourcePoint"/>
                        <mxPoint x="290" y="290" as="targetPoint"/>
                    </mxGeometry>
                </mxCell>
                <mxCell id="123" value="" style="endArrow=none;html=1;strokeColor=#000000;" edge="1" parent="1">
                    <mxGeometry width="50" height="50" relative="1" as="geometry">
                        <mxPoint x="140" y="300.24" as="sourcePoint"/>
                        <mxPoint x="290" y="300" as="targetPoint"/>
                    </mxGeometry>
                </mxCell>
                <mxCell id="124" value="" style="endArrow=none;html=1;strokeColor=#000000;" edge="1" parent="1">
                    <mxGeometry width="50" height="50" relative="1" as="geometry">
                        <mxPoint x="140" y="310.24" as="sourcePoint"/>
                        <mxPoint x="290" y="310" as="targetPoint"/>
                    </mxGeometry>
                </mxCell>
                <mxCell id="125" value="" style="endArrow=none;html=1;strokeColor=#000000;" edge="1" parent="1">
                    <mxGeometry width="50" height="50" relative="1" as="geometry">
                        <mxPoint x="140" y="210.24" as="sourcePoint"/>
                        <mxPoint x="290" y="210" as="targetPoint"/>
                    </mxGeometry>
                </mxCell>
                <mxCell id="126" value="" style="endArrow=none;html=1;strokeColor=#000000;" edge="1" parent="1">
                    <mxGeometry width="50" height="50" relative="1" as="geometry">
                        <mxPoint x="140" y="220.48000000000002" as="sourcePoint"/>
                        <mxPoint x="290" y="220.24" as="targetPoint"/>
                    </mxGeometry>
                </mxCell>
                <mxCell id="127" value="" style="endArrow=none;html=1;strokeColor=#000000;" edge="1" parent="1">
                    <mxGeometry width="50" height="50" relative="1" as="geometry">
                        <mxPoint x="140" y="230.48000000000002" as="sourcePoint"/>
                        <mxPoint x="290" y="230.24" as="targetPoint"/>
                    </mxGeometry>
                </mxCell>
                <mxCell id="128" value="" style="endArrow=none;html=1;strokeColor=#000000;" edge="1" parent="1">
                    <mxGeometry width="50" height="50" relative="1" as="geometry">
                        <mxPoint x="140" y="240.48000000000002" as="sourcePoint"/>
                        <mxPoint x="290" y="240.24" as="targetPoint"/>
                    </mxGeometry>
                </mxCell>
                <mxCell id="178" value="" style="endArrow=none;html=1;strokeColor=#000000;" edge="1" parent="1">
                    <mxGeometry width="50" height="50" relative="1" as="geometry">
                        <mxPoint x="600" y="239.76999999999998" as="sourcePoint"/>
                        <mxPoint x="500" y="239.76999999999998" as="targetPoint"/>
                    </mxGeometry>
                </mxCell>
                <mxCell id="179" value="" style="endArrow=none;html=1;strokeColor=#000000;" edge="1" parent="1">
                    <mxGeometry width="50" height="50" relative="1" as="geometry">
                        <mxPoint x="600" y="249.89" as="sourcePoint"/>
                        <mxPoint x="500" y="249.89" as="targetPoint"/>
                    </mxGeometry>
                </mxCell>
                <mxCell id="180" value="" style="endArrow=none;html=1;strokeColor=#000000;" edge="1" parent="1">
                    <mxGeometry width="50" height="50" relative="1" as="geometry">
                        <mxPoint x="600" y="259.77" as="sourcePoint"/>
                        <mxPoint x="500" y="259.77" as="targetPoint"/>
                    </mxGeometry>
                </mxCell>
                <mxCell id="181" value="" style="endArrow=none;html=1;strokeColor=#000000;" edge="1" parent="1">
                    <mxGeometry width="50" height="50" relative="1" as="geometry">
                        <mxPoint x="600" y="270" as="sourcePoint"/>
                        <mxPoint x="500" y="270" as="targetPoint"/>
                    </mxGeometry>
                </mxCell>
                <mxCell id="182" value="" style="endArrow=none;html=1;strokeColor=#000000;" edge="1" parent="1">
                    <mxGeometry width="50" height="50" relative="1" as="geometry">
                        <mxPoint x="600" y="280" as="sourcePoint"/>
                        <mxPoint x="500" y="280" as="targetPoint"/>
                    </mxGeometry>
                </mxCell>
                <mxCell id="184" value="immutable" style="text;html=1;strokeColor=none;fillColor=none;align=center;verticalAlign=middle;whiteSpace=wrap;rounded=0;" vertex="1" parent="1">
                    <mxGeometry x="230" y="190" width="60" height="20" as="geometry"/>
                </mxCell>
                <mxCell id="185" value="mutable" style="text;html=1;strokeColor=none;fillColor=none;align=center;verticalAlign=middle;whiteSpace=wrap;rounded=0;" vertex="1" parent="1">
                    <mxGeometry x="320" y="190" width="60" height="20" as="geometry"/>
                </mxCell>
                <mxCell id="186" value="immutable" style="text;html=1;strokeColor=none;fillColor=none;align=center;verticalAlign=middle;whiteSpace=wrap;rounded=0;" vertex="1" parent="1">
                    <mxGeometry x="380" y="190" width="60" height="20" as="geometry"/>
                </mxCell>
                <mxCell id="187" value="field" style="text;html=1;strokeColor=none;fillColor=none;align=center;verticalAlign=middle;whiteSpace=wrap;rounded=0;" vertex="1" parent="1">
                    <mxGeometry x="480" y="190" width="70" height="20" as="geometry"/>
                </mxCell>
                <mxCell id="188" value="key" style="text;html=1;strokeColor=none;fillColor=none;align=center;verticalAlign=middle;whiteSpace=wrap;rounded=0;" vertex="1" parent="1">
                    <mxGeometry x="550" y="190" width="30" height="20" as="geometry"/>
                </mxCell>
                <mxCell id="189" value="&lt;br&gt;" style="rounded=0;whiteSpace=wrap;html=1;gradientDirection=north;fillColor=#008a00;fontColor=#ffffff;strokeColor=#000000;" vertex="1" parent="1">
                    <mxGeometry x="640" y="280" width="70" height="10" as="geometry"/>
                </mxCell>
                <mxCell id="190" value="&lt;br&gt;" style="rounded=0;whiteSpace=wrap;html=1;gradientDirection=north;fillColor=#008a00;fontColor=#ffffff;strokeColor=#000000;" vertex="1" parent="1">
                    <mxGeometry x="640" y="290" width="70" height="10" as="geometry"/>
                </mxCell>
                <mxCell id="192" value="&lt;br&gt;" style="rounded=0;whiteSpace=wrap;html=1;gradientDirection=north;fillColor=#008a00;fontColor=#ffffff;strokeColor=#000000;" vertex="1" parent="1">
                    <mxGeometry x="640" y="300" width="70" height="10" as="geometry"/>
                </mxCell>
                <mxCell id="193" value="&lt;br&gt;" style="rounded=0;whiteSpace=wrap;html=1;gradientDirection=north;fillColor=#008a00;fontColor=#ffffff;strokeColor=#000000;" vertex="1" parent="1">
                    <mxGeometry x="640" y="310" width="70" height="10" as="geometry"/>
                </mxCell>
                <mxCell id="194" value="&lt;br&gt;" style="rounded=0;whiteSpace=wrap;html=1;gradientDirection=north;fillColor=#008a00;fontColor=#ffffff;strokeColor=#000000;" vertex="1" parent="1">
                    <mxGeometry x="640" y="320" width="70" height="10" as="geometry"/>
                </mxCell>
                <mxCell id="195" value="&lt;br&gt;" style="rounded=0;whiteSpace=wrap;html=1;gradientDirection=north;fillColor=#008a00;fontColor=#ffffff;strokeColor=#000000;" vertex="1" parent="1">
                    <mxGeometry x="640" y="330" width="70" height="10" as="geometry"/>
                </mxCell>
                <mxCell id="199" style="edgeStyle=orthogonalEdgeStyle;html=1;entryX=0;entryY=0.5;entryDx=0;entryDy=0;strokeColor=#000000;fontSize=10;" edge="1" parent="1" target="18">
                    <mxGeometry relative="1" as="geometry">
                        <mxPoint x="290" y="365" as="sourcePoint"/>
                    </mxGeometry>
                </mxCell>
                <mxCell id="196" value="Checked access using keys, data in-place. Returns data and indices for associated lookup" style="text;html=1;strokeColor=none;fillColor=none;align=center;verticalAlign=middle;whiteSpace=wrap;rounded=0;fontSize=10;fontStyle=2" vertex="1" parent="1">
                    <mxGeometry x="140" y="340" width="150" height="50" as="geometry"/>
                </mxCell>
                <mxCell id="200" value="Rollback Log" style="text;html=1;strokeColor=none;fillColor=none;align=center;verticalAlign=middle;whiteSpace=wrap;rounded=0;fontStyle=1" vertex="1" parent="1">
                    <mxGeometry x="615" y="160" width="100" height="30" as="geometry"/>
                </mxCell>
                <mxCell id="201" value="actions" style="text;html=1;strokeColor=none;fillColor=none;align=center;verticalAlign=middle;whiteSpace=wrap;rounded=0;" vertex="1" parent="1">
                    <mxGeometry x="630" y="190" width="70" height="20" as="geometry"/>
                </mxCell>
                <mxCell id="204" value="get&lt;br&gt;methods" style="text;html=1;strokeColor=none;fillColor=none;align=center;verticalAlign=top;whiteSpace=wrap;rounded=0;fontSize=10;" vertex="1" parent="1">
                    <mxGeometry x="270" y="480" width="60" height="30" as="geometry"/>
                </mxCell>
                <mxCell id="205" value="update methods" style="text;html=1;strokeColor=none;fillColor=none;align=center;verticalAlign=top;whiteSpace=wrap;rounded=0;fontSize=10;" vertex="1" parent="1">
                    <mxGeometry x="340" y="480" width="60" height="30" as="geometry"/>
                </mxCell>
                <mxCell id="206" value="delete" style="text;html=1;strokeColor=none;fillColor=none;align=center;verticalAlign=top;whiteSpace=wrap;rounded=0;fontSize=10;" vertex="1" parent="1">
                    <mxGeometry x="410" y="480" width="60" height="30" as="geometry"/>
                </mxCell>
                <mxCell id="207" value="commit&lt;br&gt;abort" style="text;html=1;strokeColor=none;fillColor=none;align=center;verticalAlign=top;whiteSpace=wrap;rounded=0;fontSize=10;" vertex="1" parent="1">
                    <mxGeometry x="590" y="480" width="60" height="30" as="geometry"/>
                </mxCell>
                <mxCell id="210" value="Get Actions" style="text;html=1;strokeColor=none;fillColor=none;align=center;verticalAlign=middle;whiteSpace=wrap;rounded=0;fontSize=10;" vertex="1" parent="1">
                    <mxGeometry x="240" y="20" width="60" height="30" as="geometry"/>
                </mxCell>
                <mxCell id="211" value="Update Actions" style="text;html=1;strokeColor=none;fillColor=none;align=center;verticalAlign=middle;whiteSpace=wrap;rounded=0;fontSize=10;" vertex="1" parent="1">
                    <mxGeometry x="300" y="20" width="60" height="30" as="geometry"/>
                </mxCell>
                <mxCell id="212" value="Support Deletions?" style="text;html=1;strokeColor=none;fillColor=none;align=center;verticalAlign=middle;whiteSpace=wrap;rounded=0;fontSize=10;" vertex="1" parent="1">
                    <mxGeometry x="360" y="20" width="60" height="30" as="geometry"/>
                </mxCell>
                <mxCell id="213" value="Support Transactions?" style="text;html=1;strokeColor=none;fillColor=none;align=center;verticalAlign=middle;whiteSpace=wrap;rounded=0;fontSize=10;" vertex="1" parent="1">
                    <mxGeometry x="420" y="20" width="70" height="30" as="geometry"/>
                </mxCell>
                <mxCell id="214" value="Unique Constraints" style="text;html=1;strokeColor=none;fillColor=none;align=center;verticalAlign=middle;whiteSpace=wrap;rounded=0;fontSize=10;" vertex="1" parent="1">
                    <mxGeometry x="490" y="20" width="60" height="30" as="geometry"/>
                </mxCell>
                <mxCell id="215" value="Row Predicates" style="text;html=1;strokeColor=none;fillColor=none;align=center;verticalAlign=middle;whiteSpace=wrap;rounded=0;fontSize=10;" vertex="1" parent="1">
                    <mxGeometry x="550" y="20" width="60" height="30" as="geometry"/>
                </mxCell>
                <mxCell id="216" value="Limit Predicate?" style="text;html=1;strokeColor=none;fillColor=none;align=center;verticalAlign=middle;whiteSpace=wrap;rounded=0;fontSize=10;" vertex="1" parent="1">
                    <mxGeometry x="610" y="20" width="60" height="30" as="geometry"/>
                </mxCell>
                <mxCell id="217" value="Fields &amp;amp; Types" style="text;html=1;strokeColor=none;fillColor=none;align=center;verticalAlign=middle;whiteSpace=wrap;rounded=0;fontSize=10;" vertex="1" parent="1">
                    <mxGeometry x="180" y="20" width="60" height="30" as="geometry"/>
                </mxCell>
                <mxCell id="218" value="Infer immutable Fields" style="text;html=1;strokeColor=none;fillColor=none;align=center;verticalAlign=middle;whiteSpace=wrap;rounded=0;fontSize=10;" vertex="1" parent="1">
                    <mxGeometry x="280" y="90" width="60" height="30" as="geometry"/>
                </mxCell>
                <mxCell id="219" value="Primary &amp;amp; Associated Column Structures" style="text;html=1;strokeColor=none;fillColor=none;align=center;verticalAlign=middle;whiteSpace=wrap;rounded=0;fontSize=10;" vertex="1" parent="1">
                    <mxGeometry x="365" y="90" width="60" height="30" as="geometry"/>
                </mxCell>
                <mxCell id="220" value="Assign fields to Column Structures" style="text;html=1;strokeColor=none;fillColor=none;align=center;verticalAlign=middle;whiteSpace=wrap;rounded=0;fontSize=10;" vertex="1" parent="1">
                    <mxGeometry x="435" y="90" width="60" height="30" as="geometry"/>
                </mxCell>
                <mxCell id="221" value="Assign fields to Column Structures" style="text;html=1;strokeColor=none;fillColor=none;align=center;verticalAlign=middle;whiteSpace=wrap;rounded=0;fontSize=10;" vertex="1" parent="1">
                    <mxGeometry x="510" y="90" width="60" height="30" as="geometry"/>
                </mxCell>
                <mxCell id="226" style="edgeStyle=orthogonalEdgeStyle;html=1;strokeColor=#000000;fontSize=10;entryX=0;entryY=0.5;entryDx=0;entryDy=0;" edge="1" parent="1" target="227">
                    <mxGeometry relative="1" as="geometry">
                        <mxPoint x="390" y="444.75862068965534" as="targetPoint"/>
                        <mxPoint x="190" y="435" as="sourcePoint"/>
                    </mxGeometry>
                </mxCell>
                <mxCell id="225" value="Table" style="rounded=0;whiteSpace=wrap;html=1;fontSize=12;gradientDirection=north;fontStyle=1" vertex="1" parent="1">
                    <mxGeometry x="140" y="420" width="50" height="90" as="geometry"/>
                </mxCell>
                <mxCell id="227" value="Window" style="rounded=0;whiteSpace=wrap;html=1;fontSize=12;gradientDirection=north;fontStyle=1" vertex="1" parent="1">
                    <mxGeometry x="270" y="420" width="440" height="30" as="geometry"/>
                </mxCell>
                <mxCell id="228" value="scan" style="text;html=1;strokeColor=none;fillColor=none;align=center;verticalAlign=top;whiteSpace=wrap;rounded=0;fontSize=10;" vertex="1" parent="1">
                    <mxGeometry x="650" y="480" width="60" height="30" as="geometry"/>
                </mxCell>
                <mxCell id="229" value="insert" style="text;html=1;strokeColor=none;fillColor=none;align=center;verticalAlign=top;whiteSpace=wrap;rounded=0;fontSize=10;" vertex="1" parent="1">
                    <mxGeometry x="470" y="480" width="60" height="30" as="geometry"/>
                </mxCell>
                <mxCell id="231" value="" style="endArrow=classic;html=1;strokeColor=#000000;fontSize=10;" edge="1" parent="1">
                    <mxGeometry width="50" height="50" relative="1" as="geometry">
                        <mxPoint x="299.31" y="450" as="sourcePoint"/>
                        <mxPoint x="299.31" y="480" as="targetPoint"/>
                    </mxGeometry>
                </mxCell>
                <mxCell id="232" value="" style="endArrow=classic;html=1;strokeColor=#000000;fontSize=10;" edge="1" parent="1">
                    <mxGeometry width="50" height="50" relative="1" as="geometry">
                        <mxPoint x="369.85999999999996" y="450" as="sourcePoint"/>
                        <mxPoint x="369.85999999999996" y="480" as="targetPoint"/>
                    </mxGeometry>
                </mxCell>
                <mxCell id="233" value="" style="endArrow=classic;html=1;strokeColor=#000000;fontSize=10;" edge="1" parent="1">
                    <mxGeometry width="50" height="50" relative="1" as="geometry">
                        <mxPoint x="439.8599999999999" y="450" as="sourcePoint"/>
                        <mxPoint x="439.8599999999999" y="480" as="targetPoint"/>
                    </mxGeometry>
                </mxCell>
                <mxCell id="234" value="" style="endArrow=classic;html=1;strokeColor=#000000;fontSize=10;" edge="1" parent="1">
                    <mxGeometry width="50" height="50" relative="1" as="geometry">
                        <mxPoint x="499.8599999999999" y="450" as="sourcePoint"/>
                        <mxPoint x="499.8599999999999" y="480" as="targetPoint"/>
                    </mxGeometry>
                </mxCell>
                <mxCell id="235" value="borrow" style="text;html=1;strokeColor=none;fillColor=none;align=center;verticalAlign=top;whiteSpace=wrap;rounded=0;fontSize=10;" vertex="1" parent="1">
                    <mxGeometry x="530" y="480" width="60" height="30" as="geometry"/>
                </mxCell>
                <mxCell id="236" value="" style="endArrow=classic;html=1;strokeColor=#000000;fontSize=10;" edge="1" parent="1">
                    <mxGeometry width="50" height="50" relative="1" as="geometry">
                        <mxPoint x="559.9999999999999" y="449.9999999999998" as="sourcePoint"/>
                        <mxPoint x="559.9999999999999" y="479.9999999999998" as="targetPoint"/>
                    </mxGeometry>
                </mxCell>
                <mxCell id="237" value="" style="endArrow=classic;html=1;strokeColor=#000000;fontSize=10;" edge="1" parent="1">
                    <mxGeometry width="50" height="50" relative="1" as="geometry">
                        <mxPoint x="619.8299999999999" y="449.9999999999998" as="sourcePoint"/>
                        <mxPoint x="619.8299999999999" y="479.9999999999998" as="targetPoint"/>
                    </mxGeometry>
                </mxCell>
                <mxCell id="238" value="" style="endArrow=classic;html=1;strokeColor=#000000;fontSize=10;" edge="1" parent="1">
                    <mxGeometry width="50" height="50" relative="1" as="geometry">
                        <mxPoint x="679.6699999999998" y="449.9999999999998" as="sourcePoint"/>
                        <mxPoint x="679.6699999999998" y="479.9999999999998" as="targetPoint"/>
                    </mxGeometry>
                </mxCell>
                <mxCell id="239" value=".window()" style="text;html=1;strokeColor=none;fillColor=none;align=center;verticalAlign=middle;whiteSpace=wrap;rounded=0;fontSize=10;fontFamily=Lucida Console;" vertex="1" parent="1">
                    <mxGeometry x="200" y="430" width="60" height="30" as="geometry"/>
                </mxCell>
                <mxCell id="241" value="Access methods all typed, and include result type for the specific errors that can occur in each operation" style="text;html=1;strokeColor=none;fillColor=none;align=center;verticalAlign=top;whiteSpace=wrap;rounded=0;fontSize=10;fontStyle=2" vertex="1" parent="1">
                    <mxGeometry x="300" y="510" width="380" height="30" as="geometry"/>
                </mxCell>
                <mxCell id="243" value="" style="endArrow=none;html=1;strokeColor=#000000;fontFamily=Lucida Console;fontSize=12;strokeWidth=2;" edge="1" parent="1">
                    <mxGeometry width="50" height="50" relative="1" as="geometry">
                        <mxPoint x="730" y="390" as="sourcePoint"/>
                        <mxPoint x="120" y="390" as="targetPoint"/>
                    </mxGeometry>
                </mxCell>
                <mxCell id="244" value="" style="endArrow=none;html=1;strokeColor=#000000;fontFamily=Lucida Console;fontSize=12;strokeWidth=2;" edge="1" parent="1">
                    <mxGeometry width="50" height="50" relative="1" as="geometry">
                        <mxPoint x="730" y="140" as="sourcePoint"/>
                        <mxPoint x="120" y="140" as="targetPoint"/>
                    </mxGeometry>
                </mxCell>
                <mxCell id="245" value="" style="endArrow=none;html=1;strokeColor=#000000;fontFamily=Lucida Console;fontSize=12;strokeWidth=2;" edge="1" parent="1">
                    <mxGeometry width="50" height="50" relative="1" as="geometry">
                        <mxPoint x="730" y="70" as="sourcePoint"/>
                        <mxPoint x="120" y="70" as="targetPoint"/>
                    </mxGeometry>
                </mxCell>
                <mxCell id="254" style="edgeStyle=orthogonalEdgeStyle;html=1;exitX=0.75;exitY=1;exitDx=0;exitDy=0;entryX=0.75;entryY=0;entryDx=0;entryDy=0;strokeColor=#000000;strokeWidth=1;fontFamily=Helvetica;fontSize=12;" edge="1" parent="1" source="246" target="247">
                    <mxGeometry relative="1" as="geometry"/>
                </mxCell>
                <mxCell id="246" value="Pulpit Macro/Generation Interface" style="text;html=1;strokeColor=none;fillColor=none;align=right;verticalAlign=middle;whiteSpace=wrap;rounded=0;fontFamily=Helvetica;fontSize=12;fontStyle=1" vertex="1" parent="1">
                    <mxGeometry x="10" y="20" width="100" height="40" as="geometry"/>
                </mxCell>
                <mxCell id="255" style="edgeStyle=orthogonalEdgeStyle;html=1;exitX=0.75;exitY=1;exitDx=0;exitDy=0;entryX=0.75;entryY=0;entryDx=0;entryDy=0;strokeColor=#000000;strokeWidth=1;fontFamily=Helvetica;fontSize=12;" edge="1" parent="1" source="247" target="250">
                    <mxGeometry relative="1" as="geometry"/>
                </mxCell>
                <mxCell id="247" value="Table&lt;br style=&quot;font-size: 12px;&quot;&gt;Selection" style="text;html=1;strokeColor=none;fillColor=none;align=right;verticalAlign=middle;whiteSpace=wrap;rounded=0;fontFamily=Helvetica;fontSize=12;fontStyle=1" vertex="1" parent="1">
                    <mxGeometry x="10" y="85" width="100" height="40" as="geometry"/>
                </mxCell>
                <mxCell id="249" style="edgeStyle=orthogonalEdgeStyle;html=1;exitX=1;exitY=0.5;exitDx=0;exitDy=0;strokeColor=#000000;strokeWidth=1;fontFamily=Helvetica;fontSize=12;" edge="1" parent="1" source="248">
                    <mxGeometry relative="1" as="geometry">
                        <mxPoint x="270" y="104.75862068965512" as="targetPoint"/>
                    </mxGeometry>
                </mxCell>
                <mxCell id="248" value="Selector" style="rounded=0;whiteSpace=wrap;html=1;fontSize=12;gradientDirection=north;fontStyle=1" vertex="1" parent="1">
                    <mxGeometry x="170" y="85" width="60" height="40" as="geometry"/>
                </mxCell>
                <mxCell id="256" style="edgeStyle=orthogonalEdgeStyle;html=1;exitX=0.75;exitY=1;exitDx=0;exitDy=0;entryX=0.75;entryY=0;entryDx=0;entryDy=0;strokeColor=#000000;strokeWidth=1;fontFamily=Helvetica;fontSize=12;" edge="1" parent="1" source="250" target="251">
                    <mxGeometry relative="1" as="geometry"/>
                </mxCell>
                <mxCell id="250" value="Table Code Generation" style="text;html=1;strokeColor=none;fillColor=none;align=right;verticalAlign=middle;whiteSpace=wrap;rounded=0;fontFamily=Helvetica;fontSize=12;fontStyle=1" vertex="1" parent="1">
                    <mxGeometry x="10" y="250" width="100" height="40" as="geometry"/>
                </mxCell>
                <mxCell id="251" value="Use Generated Code" style="text;html=1;strokeColor=none;fillColor=none;align=right;verticalAlign=middle;whiteSpace=wrap;rounded=0;fontFamily=Helvetica;fontSize=12;fontStyle=1" vertex="1" parent="1">
                    <mxGeometry x="10" y="445" width="100" height="40" as="geometry"/>
                </mxCell>
                <mxCell id="252" value="Checking predicates, updating values &amp;amp; rollback log on mutation" style="text;html=1;strokeColor=none;fillColor=none;align=center;verticalAlign=middle;whiteSpace=wrap;rounded=0;fontSize=10;fontStyle=2" vertex="1" parent="1">
                    <mxGeometry x="475" y="350" width="235" height="40" as="geometry"/>
                </mxCell>
            </root>
        </mxGraphModel>
    </diagram>
</mxfile>